<?xml version="1.0" encoding="utf-8"?>
<!-- Generator: Adobe Illustrator 19.1.0, SVG Export Plug-In . SVG Version: 6.00 Build 0)  -->
<svg version="1.1" xmlns="http://www.w3.org/2000/svg" xmlns:xlink="http://www.w3.org/1999/xlink" x="0px" y="0px"
	 viewBox="555.93 407.77 58.34 134.89" style="enable-background:new 555.93 407.77 58.34 134.89;" xml:space="preserve">
<style type="text/css">
	.st0{fill:#FF7415;}
</style>
<g id="Layer_1">
	<path class="st0" d="M611.57,498.21c0.88-8.25,3.38-11.48,2.52-17.03c-1.01-6.58-0.31-27.86-0.23-34.23
		c0.09-6.23-1.93-16.22-1.62-29.48c0.29-12.66-14.38-12.73-13.7-1.34c0.53,9.01-0.58,9.3-0.18,12.41c0.67,5.45,0.04,11.48-0.27,15.7
		c-0.13,1.94,0.45,4.07-0.14,9.74c-0.74-3.12-1.6-3.25-3.63-7.71c-3.28-6.52-15.8-2.73-16.17,3.27l-0.11,2.66
		c-2.74-1.66-12.52,2.19-11.19,10.15c-5.34-1.04-8.61,3.51-7.3,8.66c1.13,4.45,1.58,7.05,0.15,14.82
		c-1.77,9.65-4.76,20.73,1.91,32.15c0.59,0.99,0,2.15-0.66,2.45c-1.25,0.55-4.95,0.14-5.02,3.26v11.63c0,4.15,6.08,7.47,25.34,7.41
		c20.07-0.06,27.93-0.29,28-8.59c0.07-8.15,0-10.41,0-10.41c-0.07-2.59-1.8-3.01-2.91-3.41c-0.66-0.23-0.94-1.21-0.63-1.88
		C606.18,517.4,610.64,507.11,611.57,498.21z M601.03,444.02c-0.18-0.85-0.41-0.41-0.48-2c-0.22-8.22-0.07-12.59-0.07-12.59
		c0.11-1.82,0.79-1.21,0.96-1.86c0.16-0.57-0.45-0.14-0.67-2.07c-0.1-1.01-0.48-3.63-0.37-10.93c-0.15-6.45,9.6-7.94,10.05,2.97
		c0.29,7.4-0.37,7.32-0.16,8.44c-0.06,4.07,2.08,13.48,1.11,18.45c1.11,6.07-0.07,16.59,0.23,20.07c0,2.96,0.66,9.63,0,14.23
		c-0.52-1.27-4.15-6.08-6.07-13.56c-0.6-2.59-1.79-4.66-4.6-6.73c-0.84-5.23-1.22-12.84-0.48-13.19
		C600.83,445.08,601.25,444.98,601.03,444.02z M591.84,448.34c2.15-1.7,2.81,2,3.26,3.04c0.25,0.58,0.89,1.33,0.83,2.3
		c0,3.78-1.64,4.22-2.31,4.22c-0.67,0-1.18-0.3-1.48-1.04C591.54,455.09,589.7,450.04,591.84,448.34z M580.36,449.39
		c2.02-5.47,9.86-4.6,9.86-4.08c0.37,0.23-0.07,0.74-0.66,0.83c-8.3-0.37-4.35,16.13-0.67,21.33c0.96,1.36,1.01,1.43,1.56,2.7
		c0.62,1.48-0.96-0.18-3.34,1.08c-1.82,0.96-2,1.66-2.45,2.77c-0.45,1.11-1.72-0.56-2.52-1.3c-1.57-1.47-2.16-3.62-2.21-6.37
		c-0.04-1.87,0.29-5.56,0.06-10.15C580.09,453.53,579.38,452.08,580.36,449.39z M579.93,480.8c2.59-2.81,6.48,0.41,6.7,1.37
		c0.42,1.82,0.41,2.48-0.04,2.7c-2.4,1.82-3.22,0.33-5.66-1.59C579.29,482.2,579.55,481.46,579.93,480.8z M579.93,486.72
		c-0.19,2.39-0.74,2.46-1.27,2.59c-0.35,0.08-5.78-1.79-5.41-2.96c0.08-0.23,0.75-2.29,2.3-2.44
		C577.84,483.68,579.93,485.65,579.93,486.72z M586.93,476.68c-1.53-1.4-1.19-1.78-0.78-2.79c3.19-3.25,5.8-0.24,6.37,1.38
		c0.86,2.41,0.16,3.32-1.18,4.11C590.2,480.04,588.08,477.71,586.93,476.68z M568.56,461.58c0.11-2.23,0.49-3.05,1.05-3.75
		c0.57-0.7,3.7-4.41,7.6-3.45c0.47,0.19,0.79,0.41,0.79,0.74c0.29,5.29-0.03,7.41-0.08,8.71c-0.67,6.52,1.83,9.41,3.68,10.81
		c1.24,1.34,2.3,1.7,3.14,2.74c0.66,0.84,2.1,1.74-0.12,1.19c-1.09-0.27-1.78-1.16-3.59-0.45c-1.1,0.66-1.77,0.81-2.97,2.81
		c-0.07,0.23-0.11,0.48-0.22,0.3c-0.49-0.59-3.91-1.2-5.34-6.66c-1.87-7.25-3.66-10.46-3.94-11.98
		C568.52,462.33,568.52,461.92,568.56,461.58z M566.93,464.47c0.15,0.02,0.37,0.07,0.44,0.48c0.3,2.14,0.88,3.36,1.14,4.59
		c0.36,1.6,2.15,6.07,3.12,8.15c2.37,4.81,4.38,4.29,4.45,4.59c0.04,0.41-1.89,0.02-2.16,0.29c-0.6,0.65-1.64,1.79-1.77,3.04
		c-0.15,1.41-3.02,0-4.14-0.96c-2.01-1.7-2.75-6.05-5.71-11.04C560.45,470.5,559.93,462.79,566.93,464.47z M606.45,523.4
		c0.49,0.26,0.79,0.63,0.88,1.11l0.22,8.08c0,6.52-2.81,7.4-24.89,7.55c-21.33,0-24.14-3.34-24.14-6.08c0,0,0.03-6.25-0.07-7.48
		c-0.17-1.78,0.57-2.65,1.77-2.23c1.27,0.45,15.11,2,23.11,1.78C603.54,525.57,605.21,522.75,606.45,523.4z M605.19,515.1
		c-1.48,2.88-1.46,6.16-5.48,7.33c-3.97,1.15-14.95,1.48-22.81,1.26c-14.3-0.67-16.38-10.74-16.97-21.48
		c-0.03-13.49,1.78-14.81,2.19-19.15c0.16-1.62,2.09-1.94,2.7-0.04c0.87,2.69,4,4.44,5.04,4.67c5.63,1.41,8.21,5.47,9.55,7.55
		c1.34,2.07,0.39,7.7,0.3,8.74c-0.11,1.26-1.18,2.89,0.23,3.63c0.28,0.16,0.87,0.03,1.24-0.32c0.38-0.39,0.5-0.79,0.53-1.47
		c0.49-14.66,0.83-13.33,5.33-17.46c3.06-2.81,5.72-0.82,6.52,0.81c0.86,1.84,1.46,1.23,1.71,0.45c0.07-0.97-1.27-3.04-1.86-4.15
		c-0.65-1.03-0.61-1.78-0.22-3.26c0.38-1.67,2.01-1.77,3.18-1.62c0.93,0.11,1.41-0.38,1.04-1.19s-0.87-1.2-1.63-1.59
		c-1.65-0.86-1.71-6.61-1.26-7.81c0.57-1.59-0.71-1.48-1.3-1.55c-3.59,0.05-3.74-5.04-4.48-6c-0.55-2.23-1.67-4.04-1.85-6.27
		c-0.37-2.22-1.41-8.99,3.63-8.48c1,0.09-1.82,0.92-1.3,3.66c0.2,1.03,0.38,2.13,0.54,3.04c0.21,1.15,0.43,4.07,1.8,4.85
		c0.59,0.22,1.95,0.62,2.68,0.27c3.37-1.65,1.62-2.72,3.17-3.91c0.38,0.89,0.67,1.26,1.26,2.08c1.04,1.26,1.15,2.74,2.01,3.11
		c0.52,0.23,1,0.63,1.92,2.07c1.49,2.08,3.17,10.62,8.15,17.71c2.33,3.33,1.32,5.31,0.74,7.92
		C610.02,495.12,610.35,503.12,605.19,515.1z"/>
</g>
<g id="Layer_2">
</g>
</svg>
