<?xml version="1.0" encoding="utf-8"?>
<!-- Generator: Adobe Illustrator 19.1.0, SVG Export Plug-In . SVG Version: 6.00 Build 0)  -->
<svg version="1.1" id="Layer_1" xmlns="http://www.w3.org/2000/svg" xmlns:xlink="http://www.w3.org/1999/xlink" x="0px" y="0px"
	 viewBox="555.93 407.77 58.34 134.96" style="enable-background:new 555.93 407.77 58.34 134.96;" xml:space="preserve">
<style type="text/css">
	.st0{fill:#FFFFFF;}
</style>
<g>
	<g>
		<g>
			<path d="M578.15,449.54l-0.11,2.66c-2.74-1.66-12.52,2.19-11.19,10.15c-5.34-1.04-8.61,3.51-7.3,8.66
				c1.13,4.45,1.58,7.05,0.15,14.82c-1.77,9.65-4.76,20.73,1.91,32.15c0.59,0.99,0,2.15-0.66,2.45c-1.25,0.55-4.95,0.14-5.02,3.26
				v11.63c0,4.15,6.08,7.47,25.34,7.41c20.07-0.06,27.93-0.29,28-8.59c0.07-8.15,0-10.41,0-10.41c-0.07-2.59-1.8-3.01-2.91-3.41
				c-0.66-0.23-0.94-1.21-0.63-1.88c0.45-1.04,4.91-11.33,5.84-20.23c0.88-8.25,3.38-11.48,2.52-17.03
				c-1.01-6.58-0.31-27.86-0.23-34.23c0.09-6.23-1.93-16.22-1.62-29.48c0.29-12.66-14.38-12.73-13.7-1.34
				c0.53,9.01-0.58,9.3-0.18,12.41c0.67,5.45,0.04,11.48-0.27,15.7c-0.13,1.94,0.45,4.07-0.14,9.74c-0.74-3.12-1.6-3.25-3.63-7.71
				C591.04,439.75,578.52,443.54,578.15,449.54z"/>
			<path class="st0" d="M583.33,526.13c-8,0.22-21.84-1.33-23.11-1.78c-1.2-0.42-1.94,0.45-1.77,2.23c0.1,1.23,0.07,7.48,0.07,7.48
				c0,2.74,2.81,6.08,24.14,6.08c22.08-0.15,24.89-1.03,24.89-7.55l-0.22-8.08c-0.09-0.48-0.39-0.85-0.88-1.11
				C605.21,522.75,603.54,525.57,583.33,526.13z"/>
			<path class="st0" d="M581.18,507.29c-0.37,0.35-0.96,0.48-1.24,0.32c-1.41-0.74-0.34-2.37-0.23-3.63
				c0.09-1.04,1.04-6.67-0.3-8.74c-1.34-2.08-3.92-6.14-9.55-7.55c-1.04-0.23-4.17-1.98-5.04-4.67c-0.61-1.9-2.54-1.58-2.7,0.04
				c-0.41,4.34-2.22,5.66-2.19,19.15c0.59,10.74,2.67,20.81,16.97,21.48c7.86,0.22,18.84-0.11,22.81-1.26
				c4.02-1.17,4-4.45,5.48-7.33c5.16-11.98,4.83-19.98,6.3-26.6c0.58-2.61,1.59-4.59-0.74-7.92c-4.98-7.09-6.66-15.63-8.15-17.71
				c-0.92-1.44-1.4-1.84-1.92-2.07c-0.86-0.37-0.97-1.85-2.01-3.11c-0.59-0.82-0.88-1.19-1.26-2.08c-1.55,1.19,0.2,2.26-3.17,3.91
				c-0.73,0.35-2.09-0.05-2.68-0.27c-1.37-0.78-1.59-3.7-1.8-4.85c-0.16-0.91-0.34-2.01-0.54-3.04c-0.52-2.74,2.3-3.57,1.3-3.66
				c-5.04-0.51-4,6.26-3.63,8.48c0.18,2.23,1.3,4.04,1.85,6.27c0.74,0.96,0.89,6.05,4.48,6c0.59,0.07,1.87-0.04,1.3,1.55
				c-0.45,1.2-0.39,6.95,1.26,7.81c0.76,0.39,1.26,0.78,1.63,1.59s-0.11,1.3-1.04,1.19c-1.17-0.15-2.8-0.05-3.18,1.62
				c-0.39,1.48-0.43,2.23,0.22,3.26c0.59,1.11,1.93,3.18,1.86,4.15c-0.25,0.78-0.85,1.39-1.71-0.45c-0.8-1.63-3.46-3.62-6.52-0.81
				c-4.5,4.13-4.84,2.8-5.33,17.46C581.68,506.5,581.56,506.9,581.18,507.29z"/>
			<path class="st0" d="M580.93,483.28c2.44,1.92,3.26,3.41,5.66,1.59c0.45-0.22,0.46-0.88,0.04-2.7c-0.22-0.96-4.11-4.18-6.7-1.37
				C579.55,481.46,579.29,482.2,580.93,483.28z"/>
			<path class="st0" d="M573.25,486.35c-0.37,1.17,5.06,3.04,5.41,2.96c0.53-0.13,1.08-0.2,1.27-2.59c0-1.07-2.09-3.04-4.38-2.81
				C574,484.06,573.33,486.12,573.25,486.35z"/>
			<path class="st0" d="M586.93,476.68c1.15,1.03,3.27,3.36,4.41,2.7c1.34-0.79,2.04-1.7,1.18-4.11c-0.57-1.62-3.18-4.63-6.37-1.38
				C585.74,474.9,585.4,475.28,586.93,476.68z"/>
			<path class="st0" d="M566.93,464.47c-7-1.68-6.48,6.03-4.63,9.14c2.96,4.99,3.7,9.34,5.71,11.04c1.12,0.96,3.99,2.37,4.14,0.96
				c0.13-1.25,1.17-2.39,1.77-3.04c0.27-0.27,2.2,0.12,2.16-0.29c-0.07-0.3-2.08,0.22-4.45-4.59c-0.97-2.08-2.76-6.55-3.12-8.15
				c-0.26-1.23-0.84-2.45-1.14-4.59C567.3,464.54,567.08,464.49,566.93,464.47z"/>
			<path class="st0" d="M578,455.12c0.29,5.29-0.03,7.41-0.08,8.71c-0.67,6.52,1.83,9.41,3.68,10.81c1.24,1.34,2.3,1.7,3.14,2.74
				c0.66,0.84,2.1,1.74-0.12,1.19c-1.09-0.27-1.78-1.16-3.59-0.45c-1.1,0.66-1.77,0.81-2.97,2.81c-0.07,0.23-0.11,0.48-0.22,0.3
				c-0.49-0.59-3.91-1.2-5.34-6.66c-1.87-7.25-3.66-10.46-3.94-11.98c-0.04-0.26-0.04-0.67,0-1.01c0.11-2.23,0.49-3.05,1.05-3.75
				c0.57-0.7,3.7-4.41,7.6-3.45C577.68,454.57,578,454.79,578,455.12z"/>
			<path class="st0" d="M590.22,445.31c0-0.52-7.84-1.39-9.86,4.08c-0.98,2.69-0.27,4.14-0.37,6.81c0.23,4.59-0.1,8.28-0.06,10.15
				c0.05,2.75,0.64,4.9,2.21,6.37c0.8,0.74,2.07,2.41,2.52,1.3c0.45-1.11,0.63-1.81,2.45-2.77c2.38-1.26,3.96,0.4,3.34-1.08
				c-0.55-1.27-0.6-1.34-1.56-2.7c-3.68-5.2-7.63-21.7,0.67-21.33C590.15,446.05,590.59,445.54,590.22,445.31z"/>
			<path class="st0" d="M595.93,453.68c0.06-0.97-0.58-1.72-0.83-2.3c-0.45-1.04-1.11-4.74-3.26-3.04c-2.14,1.7-0.3,6.75,0.3,8.52
				c0.3,0.74,0.81,1.04,1.48,1.04C594.29,457.9,595.93,457.46,595.93,453.68z"/>
			<path class="st0" d="M610.29,425.98c-0.06,4.07,2.08,13.48,1.11,18.45c1.11,6.07-0.07,16.59,0.23,20.07c0,2.96,0.66,9.63,0,14.23
				c-0.52-1.27-4.15-6.08-6.07-13.56c-0.6-2.59-1.79-4.66-4.6-6.73c-0.84-5.23-1.22-12.84-0.48-13.19c0.35-0.17,0.77-0.27,0.55-1.23
				c-0.18-0.85-0.41-0.41-0.48-2c-0.22-8.22-0.07-12.59-0.07-12.59c0.11-1.82,0.79-1.21,0.96-1.86c0.16-0.57-0.45-0.14-0.67-2.07
				c-0.1-1.01-0.48-3.63-0.37-10.93c-0.15-6.45,9.6-7.94,10.05,2.97C610.74,424.94,610.08,424.86,610.29,425.98z"/>
		</g>
	</g>
</g>
</svg>
