<?xml version="1.0" encoding="utf-8"?>
<!-- Generator: Adobe Illustrator 19.1.0, SVG Export Plug-In . SVG Version: 6.00 Build 0)  -->
<svg version="1.1" id="Layer_1" xmlns="http://www.w3.org/2000/svg" xmlns:xlink="http://www.w3.org/1999/xlink" x="0px" y="0px"
	 viewBox="0 0 100 100" style="enable-background:new 0 0 100 100;" xml:space="preserve">
<style type="text/css">
	.st0{fill:#EEEBC9;}
</style>
<g>
	<path class="st0" d="M50,0C22.39,0,0,22.39,0,50c0,27.61,22.39,50,50,50s50-22.39,50-50C100,22.39,77.61,0,50,0z M83.38,82.07
		l-1.95-1.95l-1.31,1.31l1.95,1.95c-2.46,2.37-5.18,4.47-8.12,6.25l-1.39-2.4l-1.6,0.93l1.39,2.4c-2.97,1.64-6.14,2.96-9.47,3.92
		l-0.72-2.67l-1.79,0.48l0.72,2.68c-2.56,0.63-5.2,1.04-7.91,1.22L50,89.81l-3.18,6.36c-2.71-0.18-5.35-0.6-7.91-1.22l0.72-2.68
		l-1.79-0.48l-0.72,2.67c-3.32-0.96-6.5-2.28-9.47-3.92l1.39-2.4l-1.6-0.93l-1.39,2.4c-2.94-1.78-5.66-3.89-8.12-6.25l1.95-1.95
		l-1.31-1.31l-1.95,1.95c-2.37-2.46-4.47-5.18-6.25-8.12l2.4-1.39l-0.93-1.6l-2.4,1.39c-1.64-2.97-2.96-6.14-3.92-9.47l2.67-0.72
		l-0.48-1.79l-2.68,0.72c-0.63-2.56-1.04-5.2-1.22-7.9L10.18,50l-6.36-3.18c0.18-2.71,0.6-5.35,1.23-7.91l2.68,0.72l0.48-1.79
		l-2.67-0.72c0.96-3.33,2.28-6.5,3.92-9.47l2.4,1.39l0.93-1.6l-2.4-1.39c1.78-2.94,3.88-5.65,6.25-8.12l1.95,1.95l1.31-1.31
		l-1.95-1.95c2.46-2.37,5.18-4.47,8.12-6.25l1.39,2.4l1.6-0.93l-1.39-2.4c2.97-1.64,6.14-2.96,9.47-3.92l0.72,2.67l1.79-0.48
		l-0.72-2.68c2.56-0.63,5.2-1.04,7.91-1.22L50,10.18l3.18-6.36c2.71,0.18,5.35,0.6,7.91,1.22l-0.72,2.68l1.79,0.48l0.72-2.67
		c3.32,0.96,6.5,2.28,9.47,3.92l-1.39,2.4l1.6,0.93l1.39-2.4c2.94,1.78,5.66,3.88,8.12,6.25l-1.95,1.95l1.31,1.31l1.95-1.95
		c2.37,2.46,4.47,5.18,6.25,8.12l-2.4,1.39l0.93,1.6l2.4-1.39c1.64,2.97,2.96,6.14,3.92,9.47l-2.67,0.72l0.48,1.79l2.68-0.72
		c0.63,2.56,1.04,5.2,1.22,7.91L89.81,50l6.36,3.18c-0.18,2.71-0.6,5.35-1.22,7.9l-2.68-0.72l-0.48,1.79l2.67,0.72
		c-0.96,3.32-2.28,6.5-3.92,9.47l-2.4-1.39l-0.93,1.6l2.4,1.39C87.85,76.89,85.74,79.6,83.38,82.07z"/>
	<path class="st0" d="M57.09,38.08c-1.15-0.69-2.41-1.22-3.75-1.55L50,22.22l-3.34,14.31c-2.1,0.52-4.02,1.51-5.62,2.86l-4.93-3.29
		l3.29,4.93c-1.36,1.6-2.35,3.52-2.87,5.62L22.22,50l14.31,3.34c0.33,1.34,0.86,2.6,1.55,3.75L22.22,77.78l20.69-15.86
		c1.15,0.69,2.41,1.22,3.75,1.55L50,77.78l3.34-14.31c2.1-0.52,4.02-1.51,5.62-2.87l4.93,3.29l-3.28-4.93
		c1.35-1.6,2.34-3.52,2.86-5.62L77.78,50l-14.31-3.34c-0.33-1.34-0.86-2.6-1.55-3.75l15.86-20.69L57.09,38.08z M39.3,55.5
		c-0.85-1.65-1.34-3.52-1.34-5.5c0-6.65,5.39-12.04,12.04-12.04c1.98,0,3.85,0.49,5.5,1.34L50,43.52c-3.58,0-6.48,2.9-6.48,6.48
		L39.3,55.5z M54.63,50c0,2.56-2.07,4.63-4.63,4.63c-2.56,0-4.63-2.07-4.63-4.63s2.07-4.63,4.63-4.63
		C52.56,45.37,54.63,47.44,54.63,50z M62.04,50c0,6.65-5.39,12.04-12.04,12.04c-1.98,0-3.85-0.49-5.5-1.34l5.5-4.22
		c3.58,0,6.48-2.9,6.48-6.48l4.22-5.5C61.55,46.15,62.04,48.02,62.04,50z"/>
	<circle class="st0" cx="50" cy="50" r="2.78"/>
</g>
</svg>
