<?xml version="1.0" encoding="utf-8"?>
<!-- Generator: Adobe Illustrator 19.1.0, SVG Export Plug-In . SVG Version: 6.00 Build 0)  -->
<svg version="1.1" id="Layer_1" xmlns="http://www.w3.org/2000/svg" xmlns:xlink="http://www.w3.org/1999/xlink" x="0px" y="0px"
	 viewBox="-2449 951 100 100" style="enable-background:new -2449 951 100 100;" xml:space="preserve">
<style type="text/css">
	.st0{fill:#FF6D38;}
</style>
<g>
	<path class="st0" d="M-2399,951c-27.6,0-50,22.4-50,50s22.4,50,50,50s50-22.4,50-50S-2371.4,951-2399,951z M-2365.6,1033.1
		l-1.9-1.9l-1.3,1.3l1.9,1.9c-2.5,2.4-5.2,4.5-8.1,6.2l-1.4-2.4l-1.6,0.9l1.4,2.4c-3,1.6-6.1,3-9.5,3.9l-0.7-2.7l-1.8,0.5l0.7,2.7
		c-2.6,0.6-5.2,1-7.9,1.2l-3.2-6.4l-3.2,6.4c-2.7-0.2-5.4-0.6-7.9-1.2l0.7-2.7l-1.8-0.5l-0.7,2.7c-3.3-1-6.5-2.3-9.5-3.9l1.4-2.4
		l-1.6-0.9l-1.4,2.4c-2.9-1.8-5.7-3.9-8.1-6.2l1.9-1.9l-1.3-1.3l-1.9,2c-2.4-2.5-4.5-5.2-6.2-8.1l2.4-1.4l-0.9-1.6l-2.4,1.4
		c-1.6-3-3-6.1-3.9-9.5l2.7-0.7l-0.5-1.8l-2.7,0.7c-0.6-2.6-1-5.2-1.2-7.9l6.4-3.2l-6.4-3.2c0.2-2.7,0.6-5.4,1.2-7.9l2.7,0.7
		l0.5-1.8l-2.7-0.7c1-3.3,2.3-6.5,3.9-9.5l2.4,1.4l0.9-1.6l-2.4-1.4c1.8-2.9,3.9-5.6,6.2-8.1l2,2l1.3-1.3l-1.9-2
		c2.5-2.4,5.2-4.5,8.1-6.2l1.4,2.4l1.6-0.9l-1.4-2.4c3-1.6,6.1-3,9.5-3.9l0.7,2.7l1.8-0.5l-0.7-2.7c2.6-0.6,5.2-1,7.9-1.2l3.2,6.4
		l3.2-6.4c2.7,0.2,5.4,0.6,7.9,1.2l-0.7,2.7l1.8,0.5l0.7-2.7c3.3,1,6.5,2.3,9.5,3.9l-1.4,2.4l1.6,0.9l1.4-2.4
		c2.9,1.8,5.7,3.9,8.1,6.2l-1.9,2l1.3,1.3l1.9-2c2.4,2.5,4.5,5.2,6.2,8.1l-2.4,1.4l0.9,1.6l2.4-1.4c1.6,3,3,6.1,3.9,9.5l-2.7,0.7
		l0.5,1.8l2.7-0.7c0.6,2.6,1,5.2,1.2,7.9l-6.4,3.2l6.4,3.2c-0.2,2.7-0.6,5.4-1.2,7.9l-2.7-0.7l-0.5,1.8l2.7,0.7
		c-1,3.3-2.3,6.5-3.9,9.5l-2.4-1.4l-0.9,1.6l2.4,1.4C-2361.1,1027.9-2363.3,1030.6-2365.6,1033.1z"/>
	<path class="st0" d="M-2391.9,989.1c-1.2-0.7-2.4-1.2-3.8-1.5l-3.3-14.3l-3.3,14.3c-2.1,0.5-4,1.5-5.6,2.9l-4.9-3.3l3.3,4.9
		c-1.4,1.6-2.3,3.5-2.9,5.6l-14.3,3.3l14.3,3.3c0.3,1.3,0.9,2.6,1.6,3.8l-15.9,20.7l20.7-15.9c1.2,0.7,2.4,1.2,3.8,1.5l3.3,14.3
		l3.3-14.3c2.1-0.5,4-1.5,5.6-2.9l4.9,3.3l-3.3-4.9c1.3-1.6,2.3-3.5,2.9-5.6l14.3-3.3l-14.3-3.3c-0.3-1.3-0.9-2.6-1.6-3.8l15.9-20.7
		L-2391.9,989.1z M-2409.7,1006.5c-0.9-1.7-1.3-3.5-1.3-5.5c0-6.7,5.4-12,12-12c2,0,3.9,0.5,5.5,1.3l-5.5,4.2
		c-3.6,0-6.5,2.9-6.5,6.5L-2409.7,1006.5z M-2394.4,1001c0,2.6-2.1,4.6-4.6,4.6s-4.6-2.1-4.6-4.6s2.1-4.6,4.6-4.6
		S-2394.4,998.4-2394.4,1001z M-2387,1001c0,6.7-5.4,12-12,12c-2,0-3.9-0.5-5.5-1.3l5.5-4.2c3.6,0,6.5-2.9,6.5-6.5l4.2-5.5
		C-2387.4,997.2-2387,999-2387,1001z"/>
	<circle class="st0" cx="-2399" cy="1001" r="2.8"/>
</g>
</svg>
