<?xml version="1.0" encoding="utf-8"?>
<!-- Generator: Adobe Illustrator 19.1.0, SVG Export Plug-In . SVG Version: 6.00 Build 0)  -->
<svg version="1.1" id="Layer_1" xmlns="http://www.w3.org/2000/svg" xmlns:xlink="http://www.w3.org/1999/xlink" x="0px" y="0px"
	 viewBox="-2486 981.7 25.5 38.3" style="enable-background:new -2486 981.7 25.5 38.3;" xml:space="preserve">
<style type="text/css">
	.st0{fill:#EEEBC9;}
	.st1{fill:#FF6D38;}
</style>
<path class="st0" d="M-2468.2,989.8l7.8-6.9v17.8L-2468.2,989.8z M-2485.9,981.6h25.4l-12.7,10.2L-2485.9,981.6z M-2486.1,1000.8
	v-17.9l7.8,6.9L-2486.1,1000.8z M-2473.2,994.7L-2473.2,994.7L-2473.2,994.7L-2473.2,994.7v-0.3l3.7-3.4l8.1,9.7h-23.6l8.1-9.6
	L-2473.2,994.7z"/>
<path class="st1" d="M-2468.2,1009l7.8-6.9v17.8L-2468.2,1009z M-2485.9,1000.8h25.4l-12.7,10.2L-2485.9,1000.8z M-2486.1,1020
	v-17.9l7.8,6.9L-2486.1,1020z M-2473.2,1013.8L-2473.2,1013.8L-2473.2,1013.8L-2473.2,1013.8v-0.3l3.7-3.5l8.1,9.7h-23.6l8.1-9.6
	L-2473.2,1013.8z"/>
</svg>
