<?xml version="1.0" encoding="utf-8"?>
<!-- Generator: Adobe Illustrator 19.1.0, SVG Export Plug-In . SVG Version: 6.00 Build 0)  -->
<svg version="1.1" id="Layer_1" xmlns="http://www.w3.org/2000/svg" xmlns:xlink="http://www.w3.org/1999/xlink" x="0px" y="0px"
	 viewBox="-2491 993 16 16" style="enable-background:new -2491 993 16 16;" xml:space="preserve">
<style type="text/css">
	.st0{fill:#FF6D38;}
</style>
<g>
	<g>
		<path class="st0" d="M-2476.5,993h-13c-0.8,0-1.5,0.7-1.5,1.5v13c0,0.8,0.7,1.5,1.5,1.5h7.1v-6.2h-2.1v-2.4h2.1v-1.8
			c0-2.1,1.2-3.2,3.1-3.2c0.9,0,1.7,0.1,1.9,0.1v2.2h-1.3c-1,0-1.2,0.5-1.2,1.2v1.5h2.4l-0.3,2.4h-2.1v6.2h3.5
			c0.8,0,1.5-0.7,1.5-1.5v-13C-2475,993.7-2475.7,993-2476.5,993z"/>
	</g>
</g>
</svg>
