<?xml version="1.0" encoding="utf-8"?>
<!-- Generator: Adobe Illustrator 19.1.0, SVG Export Plug-In . SVG Version: 6.00 Build 0)  -->
<svg version="1.1" id="Layer_1" xmlns="http://www.w3.org/2000/svg" xmlns:xlink="http://www.w3.org/1999/xlink" x="0px" y="0px"
	 viewBox="0 0 146 146" style="enable-background:new 0 0 146 146;" xml:space="preserve">
<style type="text/css">
	.st0{fill:#EEEBC9;}
</style>
<path class="st0" d="M134.66,0H11.34C5.09,0,0,5.09,0,11.34v123.31C0,140.91,5.09,146,11.34,146h62.7h28.98h31.64
	c6.25,0,11.34-5.09,11.34-11.34V11.34C146,5.09,140.91,0,134.66,0z M81.48,138.63V84.8H63.41V71.53h18.07V52.28
	c0-7.6,2.17-13.8,6.34-17.92c4-3.96,9.89-6.05,16.91-6.05c4.93,0,9.2,0.24,12.51,0.48v11.68l-7.54,0
	c-14.05,0-14.21,10.44-14.21,13.87v17.17h20.37l-1.75,13.27H95.49v53.83H81.48z M138.63,134.66c0,2.19-1.79,3.97-3.97,3.97h-31.79
	V92.17h17.73l3.65-28.02h-21.38v-9.8c0-2.54,0.42-4.13,1.14-4.99c0.84-1,2.85-1.51,5.74-1.51l14.88-0.01V22.22l-3.28-0.43
	c-1.67-0.22-8.35-0.86-16.67-0.86c-9,0-16.61,2.83-22.02,8.18c-5.6,5.53-8.55,13.54-8.55,23.16v11.87H56.04v28.02h18.07v46.45H11.34
	c-2.19,0-3.97-1.78-3.97-3.97V11.34c0-2.19,1.78-3.97,3.97-3.97h123.31c2.19,0,3.97,1.78,3.97,3.97V134.66z"/>
</svg>
