<?xml version="1.0" encoding="utf-8"?>
<!-- Generator: Adobe Illustrator 19.1.0, SVG Export Plug-In . SVG Version: 6.00 Build 0)  -->
<svg version="1.1" id="Layer_1" xmlns="http://www.w3.org/2000/svg" xmlns:xlink="http://www.w3.org/1999/xlink" x="0px" y="0px"
	 viewBox="-2426 855 146 292" style="enable-background:new -2426 855 146 292;" xml:space="preserve">
<style type="text/css">
	.st0{fill:#EEEBC9;}
	.st1{fill:#FF6D38;}
</style>
<path class="st0" d="M-2291.4,855h-123.3c-6.2,0-11.3,5.1-11.3,11.3v123.3c0,6.3,5.1,11.3,11.3,11.3h62.7h29h31.6
	c6.2,0,11.3-5.1,11.3-11.3V866.3C-2280,860.1-2285.1,855-2291.4,855z M-2344.5,993.6v-53.8h-18.1v-13.3h18.1v-19.2
	c0-7.6,2.2-13.8,6.3-17.9c4-4,9.9-6,16.9-6c4.9,0,9.2,0.2,12.5,0.5v11.7h-7.5c-14.1,0-14.2,10.4-14.2,13.9v17.2h20.4l-1.8,13.3
	h-18.6v53.8L-2344.5,993.6L-2344.5,993.6z M-2287.4,989.7c0,2.2-1.8,4-4,4h-31.8v-46.5h17.7l3.6-28h-21.4v-9.8c0-2.5,0.4-4.1,1.1-5
	c0.8-1,2.9-1.5,5.7-1.5h14.9v-25.6l-3.3-0.4c-1.7-0.2-8.4-0.9-16.7-0.9c-9,0-16.6,2.8-22,8.2c-5.6,5.5-8.5,13.5-8.5,23.2v11.9h-18.1
	v28h18.1v46.4h-62.8c-2.2,0-4-1.8-4-4V866.3c0-2.2,1.8-4,4-4h123.3c2.2,0,4,1.8,4,4L-2287.4,989.7L-2287.4,989.7z"/>
<path class="st1" d="M-2291.4,1001h-123.3c-6.2,0-11.3,5.1-11.3,11.3v123.3c0,6.3,5.1,11.3,11.3,11.3h62.7h29h31.6
	c6.2,0,11.3-5.1,11.3-11.3v-123.3C-2280,1006.1-2285.1,1001-2291.4,1001z M-2344.5,1139.6v-53.8h-18.1v-13.3h18.1v-19.2
	c0-7.6,2.2-13.8,6.3-17.9c4-4,9.9-6,16.9-6c4.9,0,9.2,0.2,12.5,0.5v11.7h-7.5c-14.1,0-14.2,10.4-14.2,13.9v17.2h20.4l-1.8,13.3
	h-18.6v53.8L-2344.5,1139.6L-2344.5,1139.6z M-2287.4,1135.7c0,2.2-1.8,4-4,4h-31.8v-46.5h17.7l3.6-28h-21.4v-9.8
	c0-2.5,0.4-4.1,1.1-5c0.8-1,2.9-1.5,5.7-1.5h14.9v-25.6l-3.3-0.4c-1.7-0.2-8.4-0.9-16.7-0.9c-9,0-16.6,2.8-22,8.2
	c-5.6,5.5-8.5,13.5-8.5,23.2v11.9h-18.1v28h18.1v46.4h-62.8c-2.2,0-4-1.8-4-4v-123.3c0-2.2,1.8-4,4-4h123.3c2.2,0,4,1.8,4,4
	L-2287.4,1135.7L-2287.4,1135.7z"/>
<rect x="-2678.6" y="889" class="st0" width="145.9" height="145.9"/>
</svg>
