<?xml version="1.0" encoding="utf-8"?>
<!-- Generator: Adobe Illustrator 19.1.0, SVG Export Plug-In . SVG Version: 6.00 Build 0)  -->
<svg version="1.1" id="Layer_1" xmlns="http://www.w3.org/2000/svg" xmlns:xlink="http://www.w3.org/1999/xlink" x="0px" y="0px"
	 viewBox="0 0 16 16" style="enable-background:new 0 0 16 16;" xml:space="preserve">
<style type="text/css">
	.st0{fill:#EEEBC9;}
</style>
<g>
	<g>
		<path class="st0" d="M14.5,0h-13C0.67,0,0,0.67,0,1.5v13C0,15.33,0.67,16,1.5,16h7.06V9.78H6.47V7.4h2.09v-1.8
			c0-2.07,1.25-3.2,3.09-3.2c0.88,0,1.66,0.06,1.88,0.09v2.19l-1.31,0c-1,0-1.19,0.48-1.19,1.18V7.4h2.4l-0.31,2.38h-2.09V16h3.47
			c0.83,0,1.5-0.67,1.5-1.5v-13C16,0.67,15.33,0,14.5,0z"/>
	</g>
</g>
</svg>
