<?xml version="1.0" encoding="utf-8"?>
<!-- Generator: Adobe Illustrator 19.1.0, SVG Export Plug-In . SVG Version: 6.00 Build 0)  -->
<svg version="1.1" id="Isolation_Mode" xmlns="http://www.w3.org/2000/svg" xmlns:xlink="http://www.w3.org/1999/xlink" x="0px"
	 y="0px" viewBox="-2284 786.4 429.6 429.6" style="enable-background:new -2284 786.4 429.6 429.6;" xml:space="preserve">
<g>
	<path d="M-2090.8,893.3c13.5,1.1,39.5,1.3,55.6,0.3h-0.2c0.2,0,1.1-0.3,1.1-1.1l0.5-59.7c-0.2-0.5-0.2-0.9-0.8-0.9
		c-0.5,0-18.3,0-18.8,0c-0.8,0-1,0.5-1,1.1c0,0-1.5,40.8-1.6,42.2c0,1.1,0,1.7-1.3,1.9c-6.5,1.1-8,0.9-13.7,0.3
		c-3.5-0.3-7.8-1.1-9.1-4.7c-3.9-10.3-4.2-21.3-3.9-32c0-8.6,0.7-16.3,2.3-26.4c0.9-5.5,1.8-7.1,5.2-8.3c7.8-2.8,38.6-2.8,41.1-2.8
		c0.7,0,1.1-0.8,1.1-0.8c1.2-3.8,3.8-13.3,4-14c0.1-0.8,0-1-0.8-1c-20.2-1.4-41.9-1.5-60.5-0.3c-8,0.5-10.8,0.5-12.5,7.7
		c-2.3,9.6-4,25.9-4,33.7c0,25.4,1.6,42.8,8,59.1C-2098.3,892.4-2096.3,892.9-2090.8,893.3z"/>
	<path d="M-2036.9,1109c-9.5-1.9-56.7-1.4-65,0.2c-2.5,0.5-3.8,0.8-4.8,3.8c-7.6,24.9-6.1,70.5,0.3,94.7c1.2,4.5,1.8,5.6,6.2,6.6
		c13,2.8,51.4,2,61.7,0c4.3-1,4.8-3.8,5.8-7.7c5.8-26,9.8-66.3,1.8-92.5C-2032.1,1110.2-2032.7,1109.7-2036.9,1109z M-2055,1194.2
		c-1.1,1.9-1.7,2.3-3.9,2.8c-6.3,1.6-16.6,1.2-21.8-0.3c-1.3-0.5-2.3-1.4-3-2.4c-8.7-12.4-6.8-50.6-1.5-63c1-2.5,2.2-3.3,5.5-4.4
		c5.2-1.4,18.6-1.2,22.9,0.3c2.3,0.8,3,1.4,3.8,3.5C-2046.6,1144.7-2048.2,1181.4-2055,1194.2z"/>
	<path d="M-1875.6,1022.4c5.8-1.2,11.2-2.5,15.9-4.5c3-1.3,2.8-3.3,3.4-6c3.5-17.2,2-43.9-1.5-59.1c-1-3.9-2.1-5.4-4.7-5.6
		c-14.3-2.3-42.4-1.9-66.8-0.6c-0.9,0-2,0.2-2,0.9c0,0.7,2,104.3,2,104.3c0,0.5,0.5,1.3,1.3,1.3h17c0.5,0,0.8-0.9,1-1.1
		c0.3-8.2,0.3-14.6,0.9-22.9c8.8-1.6,9.7-1.4,11.4-1.7c0,0,25.3,28.9,25.6,29.2c0.5,0.5,1.3,0.5,2,0.3c4-1.4,14.8-5,15.1-5.2
		c0.7-0.3,0.9-0.8,0.5-1.4C-1862.2,1039.7-1867.3,1033.5-1875.6,1022.4z M-1876.1,998.6c-0.4,2.8-0.9,3.9-5.4,5.6
		c-6.3,2.7-16.8,5.6-25.8,6c-0.6,0.1-1.6-0.2-1.6-1.1c-0.2-16.3,0.7-26.8,1.5-43.1c0-0.3,0.3-0.8,1.1-1c7.7-1.2,14.8-2.3,22.8-1.5
		c1,0.2,1.8,0.9,2.3,1.7C-1876.1,972.4-1875,989.8-1876.1,998.6z"/>
	<path d="M-2225.4,1056.2c0,0,0.3,0.5,1.1,0.3c1.1-0.2,16.9-4.6,17.5-4.8c0.8-0.5,0.1-1.3,0-1.3l-21.9-26.3c2.2-1,6.6-1.7,9-2.8
		c4-1.9,4.3-2.2,5.5-6c4.3-13.3,9.4-45.2,11.8-68.5c0-0.9-0.3-0.9-1.2-0.9h-20.9c0,0-0.8,0-1,0.8c-1,30.4-3.7,42.8-5.8,52.2
		c-0.9,3.3-2.3,4.1-4.7,5.3c-8.1,4.1-14.9,4.4-25.4,4.9c0,0,1-61.8,1-62.4c0-0.8-0.1-0.8-1-0.8c-0.8,0.1-20.5,0-21.3,0
		c-0.8,0-1.2,0.5-1.2,0.8c0.8,22.3,0.8,82.9,1.7,105.4c0,0,0,0.6,0.7,0.6h18c0.5,0,0.8-0.6,0.8-0.6c0.7-9.1,0.7-15.4,1.6-23.8
		c4,0,10.6-0.8,10.6-0.8L-2225.4,1056.2z"/>
	<path d="M-1897.3,1150.8c-5-4.7-74-69.6-84.4-78.9c-3.8-3.5-35.9-33.6-75.1-70.4l138.9-131c8.3-7.8,20.8-19.8,37.3-35.8
		c-0.7-1-8.5-10.9-8.5-10.9s-13.5,8-21.4,15.4c-5,4.8-73.8,69.8-83.7,79.6c-3.7,3.6-35.8,34.1-75,71.1
		c-64.3-60.5-140.9-132.6-143.9-135.5c-12.3-11.6-22.7-21.9-31-30.8l-13.2,11.6c0,0,28.7,27.7,37,35.5l138.8,130.9
		c-64.1,60.6-140.4,132.6-143.4,135.4c-12.4,11.6-23.2,21.4-32.6,29.2l12.2,12.6c0,0,29.4-27.1,37.7-34.9l138.5-130.6l138.6,130.7
		c8.3,7.8,21,19.5,38,35.2c1.1-0.6,11.6-8.1,11.6-8.1S-1889.4,1158.2-1897.3,1150.8z"/>
</g>
</svg>
