<svg version="1.1" id="Isolation_Mode" xmlns="http://www.w3.org/2000/svg" xmlns:xlink="http://www.w3.org/1999/xlink" x="0px"
	 y="0px" viewBox="0 0 429.64 429.64" style="enable-background:new 0 0 429.64 429.64;" xml:space="preserve">
<style type="text/css">
	.st0{fill:#EEEBC9;}
</style>
<g>
	<path class="st0" d="M193.16,106.99c13.51,1.1,39.47,1.26,55.59,0.31h-0.18c0.18,0,1.14-0.31,1.14-1.11l0.52-59.72
		c-0.19-0.49-0.19-0.93-0.85-0.93c-0.52,0-18.27,0-18.77,0c-0.83,0-1.01,0.45-1.01,1.08c0,0-1.49,40.76-1.63,42.19
		c0,1.1,0,1.7-1.34,1.87c-6.48,1.11-7.97,0.94-13.67,0.32c-3.46-0.32-7.81-1.08-9.11-4.71c-3.85-10.33-4.2-21.32-3.85-31.96
		c0-8.64,0.71-16.3,2.33-26.35c0.87-5.48,1.85-7.06,5.18-8.3c7.78-2.84,38.56-2.84,41.06-2.84c0.65,0,1.14-0.77,1.14-0.77
		c1.21-3.76,3.82-13.33,4.02-13.96c0.13-0.78,0-0.95-0.85-0.95c-20.15-1.39-41.9-1.55-60.51-0.32c-8,0.49-10.79,0.49-12.47,7.7
		c-2.33,9.57-3.96,25.87-3.96,33.71c0,25.39,1.63,42.8,7.97,59.11C185.7,106.04,187.66,106.51,193.16,106.99z"/>
	<path class="st0" d="M247.08,322.61c-9.49-1.89-56.71-1.42-65.02,0.15c-2.5,0.47-3.79,0.8-4.83,3.78
		c-7.6,24.92-6.12,70.53,0.33,94.69c1.19,4.55,1.85,5.64,6.19,6.59c12.97,2.82,51.35,2.03,61.71,0c4.31-0.96,4.78-3.77,5.81-7.69
		c5.82-26,9.8-66.32,1.79-92.48C251.93,323.86,251.26,323.37,247.08,322.61z M229.01,407.88c-1.05,1.88-1.74,2.35-3.87,2.83
		c-6.3,1.58-16.59,1.25-21.78-0.31c-1.28-0.45-2.33-1.43-2.99-2.35c-8.65-12.38-6.81-50.64-1.52-63.03c1.02-2.5,2.18-3.29,5.5-4.39
		c5.16-1.39,18.62-1.24,22.92,0.31c2.32,0.79,3.04,1.41,3.84,3.45C237.44,358.35,235.77,395.04,229.01,407.88z"/>
	<path class="st0" d="M408.37,236.06c5.8-1.25,11.16-2.5,15.91-4.54c3.02-1.26,2.83-3.29,3.37-5.98c3.5-17.24,1.98-43.89-1.5-59.09
		c-0.98-3.94-2.14-5.35-4.67-5.64c-14.27-2.34-42.37-1.88-66.81-0.64c-0.87,0-1.99,0.16-1.99,0.93c0,0.65,1.99,104.28,1.99,104.28
		c0,0.47,0.47,1.26,1.29,1.26h17c0.47,0,0.83-0.94,0.97-1.11c0.31-8.16,0.31-14.57,0.87-22.89c8.77-1.57,9.74-1.4,11.44-1.74
		c0,0,25.28,28.86,25.6,29.16c0.47,0.5,1.34,0.5,1.97,0.32c3.99-1.41,14.82-5.01,15.14-5.17c0.67-0.31,0.85-0.79,0.52-1.39
		C421.84,253.32,416.67,247.17,408.37,236.06z M407.9,212.24c-0.36,2.81-0.88,3.89-5.39,5.64c-6.3,2.66-16.77,5.63-25.77,5.95
		c-0.63,0.15-1.64-0.15-1.64-1.1c-0.18-16.29,0.68-26.8,1.52-43.11c0-0.32,0.33-0.79,1.12-0.95c7.66-1.23,14.81-2.34,22.79-1.55
		c1,0.15,1.85,0.94,2.34,1.71C407.9,186.06,409.02,203.46,407.9,212.24z"/>
	<path class="st0" d="M58.6,269.82c0,0,0.33,0.47,1.08,0.31c1.05-0.15,16.87-4.55,17.49-4.85c0.84-0.47,0.13-1.26,0-1.26
		l-21.95-26.35c2.17-0.96,6.64-1.74,8.98-2.81c4.02-1.9,4.34-2.21,5.51-5.95c4.34-13.33,9.43-45.17,11.8-68.53
		c0-0.92-0.33-0.92-1.19-0.92H59.37c0,0-0.77,0-0.99,0.76c-0.98,30.42-3.68,42.81-5.78,52.21c-0.85,3.29-2.33,4.08-4.69,5.33
		c-8.15,4.08-14.95,4.39-25.42,4.87c0,0,0.96-61.79,0.96-62.41c0-0.76-0.13-0.76-0.96-0.76c-0.82,0.13-20.46,0-21.29,0
		c-0.83,0-1.2,0.45-1.2,0.76c0.84,22.26,0.84,82.94,1.67,105.36c0,0,0,0.63,0.69,0.63h17.96c0.51,0,0.83-0.63,0.83-0.63
		c0.65-9.1,0.65-15.36,1.63-23.82c4.02,0,10.65-0.79,10.65-0.79L58.6,269.82z"/>
	<path class="st0" d="M386.72,364.43c-5.02-4.74-74-69.59-84.41-78.93c-3.84-3.46-35.94-33.6-75.07-70.4L366.11,84.14
		c8.33-7.83,20.75-19.75,37.34-35.83c-0.69-1.05-8.54-10.94-8.54-10.94s-13.55,7.99-21.4,15.39c-5.04,4.76-73.81,69.76-83.69,79.58
		c-3.68,3.63-35.8,34.05-74.98,71.08C150.52,142.92,73.94,70.77,70.91,67.9c-12.35-11.63-22.69-21.88-31-30.75L26.66,48.71
		c0,0,28.68,27.7,36.97,35.52l138.82,130.9C138.34,275.71,62.06,347.69,59.03,350.55c-12.37,11.61-23.25,21.36-32.59,29.16
		l12.21,12.55c0,0,29.37-27.07,37.7-34.88L214.83,226.8L353.4,357.46c8.3,7.81,21,19.54,38.02,35.17
		c1.12-0.63,11.59-8.07,11.59-8.07S394.58,371.85,386.72,364.43z"/>
</g>
</svg>
