<?xml version="1.0" encoding="utf-8"?>
<!-- Generator: Adobe Illustrator 19.1.0, SVG Export Plug-In . SVG Version: 6.00 Build 0)  -->
<svg version="1.1" id="Layer_1" xmlns="http://www.w3.org/2000/svg" xmlns:xlink="http://www.w3.org/1999/xlink" x="0px" y="0px"
	 viewBox="-2445.5 939.3 92.9 77.3" style="enable-background:new -2445.5 939.3 92.9 77.3;" xml:space="preserve">
<style type="text/css">
	.st0{fill:#FF6D38;}
</style>
<g>
	<g>
		<path class="st0" d="M-2414.3,1016.7c-10.6,0-20.9-3-29.8-8.7c-1.2-0.8-1.7-2.2-1.2-3.5c0.5-1.3,1.8-2.1,3.2-2
			c0,0,1.4,0.1,3.6,0.1c4.1,0,10.9-0.5,16.7-3.4c-7.6-3-11.3-9.5-12.2-13.3c-0.3-1,0-2,0.7-2.8c-6-5.2-7.5-12.3-7.2-16.3
			c0.1-1,0.7-2,1.6-2.5c0.3-0.1,0.5-0.2,0.8-0.3c-4.2-7.8-1.9-16.2,0.6-20.4c0.5-0.8,1.3-1.4,2.3-1.5c0.9-0.1,1.9,0.3,2.5,1
			c8.2,9.1,17.3,13.5,23.4,15.6c3.3,1.1,6.1,1.7,8.1,2c0-0.1,0-0.3,0-0.4c0-11.6,9.4-21.1,21.1-21.1c11.2,0,21,9.8,21,21.1
			C-2359.2,992.5-2382.9,1016.7-2414.3,1016.7z M-2430.4,1008c5.1,1.8,10.6,2.7,16.1,2.7c13.4,0,25.7-4.9,34.7-13.9
			c9.3-9.2,14.4-22.1,14.4-36.4c0-7.1-6.4-15.1-15-15.1c-8.3,0-15.1,6.8-15.1,15.1c0,1,0.1,2.1,0.3,3.1c0.2,0.9,0,1.8-0.6,2.5
			c-0.6,0.7-1.4,1.1-2.3,1.1c-0.8,0-19.2-0.3-36-16.5c-1,4.1-1.2,10.7,5.9,16.1c1,0.8,1.4,2.1,1,3.2c-0.4,1.2-1.4,2-2.7,2.1
			c0,0-0.2,0-0.5,0c-0.8,0-2.1-0.1-3.8-0.4c1.1,3.6,4,8.4,11.6,10.6c1.3,0.4,2.2,1.6,2.2,3c-0.1,1.4-1.1,2.5-2.4,2.8
			c-0.1,0-1.6,0.3-3.6,0.4c2,2.7,5.5,5.9,11.9,6.3c1.2,0.1,2.2,0.8,2.6,2c0.4,1.1,0.1,2.4-0.7,3.2
			C-2417.6,1004.9-2424.5,1007-2430.4,1008z"/>
	</g>
	<g>
		<path class="st0" d="M-2363.6,956.4c-1,0-2-0.5-2.6-1.4c-0.9-1.4-0.4-3.3,1-4.1c0.4-0.3,0.8-0.5,1.2-0.8c-1,0.3-2,0.5-3.1,0.6
			c-1.6,0.2-3.2-0.9-3.4-2.5c-0.2-1.6,0.9-3.2,2.5-3.4c5.5-0.8,10.7-4,10.8-4.1c1.1-0.7,2.4-0.6,3.4,0.2c1,0.8,1.4,2.1,1,3.3
			c-1.6,4.9-4.9,9.1-9.4,11.9C-2362.5,956.2-2363.1,956.4-2363.6,956.4z"/>
	</g>
	<g>
		<path class="st0" d="M-2362.2,965.9c-0.9,0-1.8-0.4-2.4-1.2c-1-1.3-0.7-3.2,0.6-4.2c0.1-0.1,0.2-0.1,0.3-0.2c-0.5-0.4-0.8-1-1-1.7
			c-0.3-1.6,0.8-3.2,2.4-3.5c3.4-0.6,5-1.6,5-1.6c1.2-0.8,2.8-0.6,3.8,0.4c1,1,1.1,2.6,0.4,3.8c-2,3-4.5,5.6-7.4,7.7
			C-2361,965.7-2361.6,965.9-2362.2,965.9z"/>
	</g>
</g>
</svg>
