<?xml version="1.0" encoding="utf-8"?>
<!-- Generator: Adobe Illustrator 19.1.0, SVG Export Plug-In . SVG Version: 6.00 Build 0)  -->
<svg version="1.1" id="Layer_1" xmlns="http://www.w3.org/2000/svg" xmlns:xlink="http://www.w3.org/1999/xlink" x="0px" y="0px"
	 viewBox="-2400.1 803 198.1 396.1" style="enable-background:new -2400.1 803 198.1 396.1;" xml:space="preserve">
<style type="text/css">
	.st0{fill:#EEEBC9;}
	.st1{fill:#FF6D38;}
</style>
<path class="st0" d="M-2220.6,803h-160.9c-10.2,0-18.6,8.3-18.6,18.6v160.9c0,10.2,8.3,18.6,18.6,18.6h160.9
	c10.3,0,18.6-8.3,18.6-18.6V821.5C-2201.9,811.2-2210.2,803-2220.6,803z M-2248.4,875c0.1,1.2,0.1,2.3,0.1,3.5
	c0,35.8-27.2,77.1-77.1,77.1c-15.3,0-29.5-4.5-41.5-12.2c2.1,0.2,4.3,0.4,6.5,0.4c12.7,0,24.4-4.3,33.6-11.6
	c-11.9-0.2-21.9-8.1-25.3-18.8c1.6,0.3,3.3,0.5,5.1,0.5c2.5,0,4.9-0.3,7.1-1c-12.4-2.5-21.7-13.4-21.7-26.6c0-0.1,0-0.2,0-0.3
	c3.6,2,7.8,3.2,12.3,3.4c-7.3-4.9-12.1-13.2-12.1-22.5c0-5,1.3-9.6,3.7-13.6c13.4,16.4,33.3,27.2,55.8,28.3c-0.5-2-0.7-4-0.7-6.2
	c0-15,12.1-27.1,27.1-27.1c7.8,0,14.8,3.3,19.8,8.5c6.2-1.2,12-3.5,17.2-6.6c-2,6.3-6.3,11.6-11.9,15c5.5-0.7,10.7-2.1,15.6-4.3
	C-2238.6,866.5-2243.1,871.2-2248.4,875z"/>
<path class="st1" d="M-2220.6,1001h-160.9c-10.2,0-18.6,8.3-18.6,18.6v160.9c0,10.2,8.3,18.6,18.6,18.6h160.9
	c10.3,0,18.6-8.3,18.6-18.6v-160.9C-2201.9,1009.3-2210.2,1001-2220.6,1001z M-2248.4,1073.1c0.1,1.2,0.1,2.3,0.1,3.5
	c0,35.8-27.2,77.1-77.1,77.1c-15.3,0-29.5-4.5-41.5-12.2c2.1,0.2,4.3,0.4,6.5,0.4c12.7,0,24.4-4.3,33.6-11.6
	c-11.9-0.2-21.9-8.1-25.3-18.8c1.6,0.3,3.3,0.5,5.1,0.5c2.5,0,4.9-0.3,7.1-0.9c-12.4-2.5-21.7-13.4-21.7-26.6c0-0.1,0-0.2,0-0.3
	c3.6,2,7.8,3.2,12.3,3.4c-7.3-4.9-12.1-13.2-12.1-22.5c0-5,1.3-9.6,3.7-13.6c13.4,16.4,33.3,27.2,55.8,28.3c-0.5-2-0.7-4.1-0.7-6.2
	c0-15,12.1-27.1,27.1-27.1c7.8,0,14.8,3.3,19.8,8.6c6.2-1.2,12-3.5,17.2-6.6c-2,6.3-6.3,11.6-11.9,15c5.5-0.7,10.7-2.1,15.6-4.3
	C-2238.6,1064.4-2243.1,1069.2-2248.4,1073.1z"/>
</svg>
