<?xml version="1.0" encoding="utf-8"?>
<!-- Generator: Adobe Illustrator 19.1.0, SVG Export Plug-In . SVG Version: 6.00 Build 0)  -->
<svg version="1.1" id="Layer_1" xmlns="http://www.w3.org/2000/svg" xmlns:xlink="http://www.w3.org/1999/xlink" x="0px" y="0px"
	 viewBox="0 0 198 198" style="enable-background:new 0 0 198 198;" xml:space="preserve">
<style type="text/css">
	.st0{fill:#EEEBC9;}
</style>
<path class="st0" d="M179.44,0H18.56C8.31,0,0,8.31,0,18.56v160.88C0,189.69,8.31,198,18.56,198h160.88
	c10.26,0,18.56-8.31,18.56-18.56V18.56C198,8.31,189.69,0,179.44,0z M151.49,72.09c0.05,1.17,0.08,2.33,0.08,3.51
	c0,35.79-27.24,77.07-77.05,77.07c-15.29,0-29.53-4.48-41.51-12.17c2.12,0.25,4.27,0.37,6.46,0.37c12.69,0,24.37-4.33,33.63-11.59
	c-11.85-0.22-21.85-8.05-25.3-18.81c1.65,0.32,3.35,0.49,5.09,0.49c2.47,0,4.86-0.33,7.14-0.95C47.64,107.52,38.3,96.57,38.3,83.45
	c0-0.11,0-0.23,0-0.34c3.65,2.02,7.83,3.25,12.27,3.38c-7.27-4.86-12.05-13.15-12.05-22.54c0-4.96,1.34-9.62,3.66-13.62
	C55.55,66.72,75.5,77.5,98.01,78.63c-0.46-1.98-0.7-4.05-0.7-6.17c0-14.96,12.12-27.09,27.08-27.09c7.79,0,14.83,3.29,19.77,8.55
	c6.17-1.21,11.96-3.47,17.2-6.57c-2.02,6.32-6.31,11.63-11.91,14.99c5.48-0.66,10.7-2.12,15.55-4.27
	C161.37,63.51,156.78,68.27,151.49,72.09z"/>
</svg>
